<svg width="40" height="40" viewBox="0 0 40 40" fill="none" xmlns="http://www.w3.org/2000/svg">
<path d="M10 0.5H30C35.2467 0.5 39.5 4.7533 39.5 10V30C39.5 35.2467 35.2467 39.5 30 39.5H10C4.7533 39.5 0.5 35.2467 0.5 30V10C0.5 4.7533 4.7533 0.5 10 0.5Z" fill="#FEFEFE"/>
<path d="M10 0.5H30C35.2467 0.5 39.5 4.7533 39.5 10V30C39.5 35.2467 35.2467 39.5 30 39.5H10C4.7533 39.5 0.5 35.2467 0.5 30V10C0.5 4.7533 4.7533 0.5 10 0.5Z" stroke="#EFEDEB"/>
<path d="M17.1948 24.5033C17.1948 24.5693 17.1287 24.6024 17.0296 24.6024C16.9305 24.6354 16.8645 24.5693 16.8645 24.5033C16.8645 24.4372 16.9305 24.3711 17.0296 24.3711C17.1287 24.3711 17.1948 24.4372 17.1948 24.5033ZM16.1707 24.3381C16.2037 24.272 16.3028 24.239 16.4019 24.272C16.5011 24.3051 16.5341 24.3711 16.5341 24.4372C16.5011 24.5033 16.4019 24.5363 16.3359 24.5033C16.2368 24.5033 16.1707 24.4042 16.1707 24.3381ZM17.6573 24.3051C17.7234 24.272 17.8225 24.3381 17.8225 24.4042C17.8556 24.4702 17.7895 24.5033 17.6904 24.5363C17.5913 24.5693 17.4922 24.5363 17.4922 24.4702C17.4922 24.3711 17.5582 24.3051 17.6573 24.3051ZM19.8047 11.619C24.3968 11.619 28.1299 15.1209 28.1299 19.6799C28.1299 23.347 25.8834 26.4855 22.5798 27.5757C22.1503 27.6748 21.9851 27.4105 21.9851 27.1792C21.9851 26.9149 22.0181 25.5274 22.0181 24.4372C22.0181 23.6443 21.7539 23.1488 21.4565 22.8845C23.3066 22.6863 25.2557 22.422 25.2557 19.2505C25.2557 18.3255 24.9254 17.896 24.3968 17.3013C24.4628 17.0701 24.7602 16.2111 24.2977 15.0548C23.6039 14.8236 22.0181 15.9468 22.0181 15.9468C21.3574 15.7486 20.6637 15.6825 19.9368 15.6825C19.2431 15.6825 18.5493 15.7486 17.8886 15.9468C17.8886 15.9468 16.2698 14.8566 15.6091 15.0548C15.1466 16.2111 15.4109 17.0701 15.51 17.3013C14.9814 17.896 14.7171 18.3255 14.7171 19.2505C14.7171 22.422 16.6002 22.6863 18.4502 22.8845C18.1859 23.1157 17.9877 23.4791 17.9216 24.0077C17.4261 24.239 16.2368 24.6024 15.51 23.314C15.0475 22.5211 14.2215 22.455 14.2215 22.455C13.4287 22.455 14.1885 22.9836 14.1885 22.9836C14.7171 23.2149 15.0805 24.1729 15.0805 24.1729C15.576 25.6595 17.8886 25.164 17.8886 25.164C17.8886 25.8578 17.8886 26.981 17.8886 27.2123C17.8886 27.4105 17.7564 27.6748 17.327 27.6087C14.0233 26.4855 11.7438 23.347 11.7438 19.6799C11.7438 15.1209 15.2457 11.619 19.8047 11.619ZM14.9483 23.0166C14.9814 22.9836 15.0475 23.0166 15.1135 23.0497C15.1796 23.1157 15.1796 23.2149 15.1466 23.2479C15.0805 23.2809 15.0144 23.2479 14.9483 23.2149C14.9153 23.1488 14.8823 23.0497 14.9483 23.0166ZM14.5849 22.7523C14.618 22.7193 14.651 22.7193 14.7171 22.7523C14.7832 22.7854 14.8162 22.8184 14.8162 22.8514C14.7832 22.9175 14.7171 22.9175 14.651 22.8845C14.5849 22.8514 14.5519 22.8184 14.5849 22.7523ZM15.6421 23.9417C15.7082 23.8756 15.8073 23.9086 15.8734 23.9747C15.9394 24.0408 15.9394 24.1399 15.9064 24.1729C15.8734 24.239 15.7743 24.2059 15.7082 24.1399C15.6091 24.0738 15.6091 23.9747 15.6421 23.9417ZM15.2787 23.4461C15.3448 23.4131 15.4109 23.4461 15.4769 23.5122C15.51 23.5783 15.51 23.6774 15.4769 23.7104C15.4109 23.7434 15.3448 23.7104 15.2787 23.6443C15.2126 23.5783 15.2126 23.4791 15.2787 23.4461Z" fill="#34302D"/>
</svg>
