<svg width="40" height="40" viewBox="0 0 40 40" fill="none" xmlns="http://www.w3.org/2000/svg">
<path d="M10 0.5H30C35.2467 0.5 39.5 4.7533 39.5 10V30C39.5 35.2467 35.2467 39.5 30 39.5H10C4.7533 39.5 0.5 35.2467 0.5 30V10C0.5 4.7533 4.7533 0.5 10 0.5Z" fill="#FEFEFE"/>
<path d="M10 0.5H30C35.2467 0.5 39.5 4.7533 39.5 10V30C39.5 35.2467 35.2467 39.5 30 39.5H10C4.7533 39.5 0.5 35.2467 0.5 30V10C0.5 4.7533 4.7533 0.5 10 0.5Z" stroke="#EFEDEB"/>
<path d="M15.646 27.25H12.4756V17.0572H15.646V27.25ZM14.0438 15.6936C13.0552 15.6936 12.237 14.8413 12.237 13.8187C12.237 12.8301 13.0552 12.0119 14.0438 12.0119C15.0664 12.0119 15.8846 12.8301 15.8846 13.8187C15.8846 14.8413 15.0664 15.6936 14.0438 15.6936ZM24.3388 27.25V22.307C24.3388 21.1139 24.3048 19.6139 22.6684 19.6139C21.0321 19.6139 20.7935 20.8752 20.7935 22.2047V27.25H17.6232V17.0572H20.6572V18.4549H20.6912C21.1344 17.6708 22.1571 16.8185 23.6911 16.8185C26.8956 16.8185 27.5092 18.9321 27.5092 21.6593V27.25H24.3388Z" fill="#34302D"/>
</svg>
