<svg width="40" height="40" viewBox="0 0 40 40" fill="none" xmlns="http://www.w3.org/2000/svg">
<path d="M10 0.5H30C35.2467 0.5 39.5 4.7533 39.5 10V30C39.5 35.2467 35.2467 39.5 30 39.5H10C4.7533 39.5 0.5 35.2467 0.5 30V10C0.5 4.7533 4.7533 0.5 10 0.5Z" fill="#FEFEFE"/>
<path d="M10 0.5H30C35.2467 0.5 39.5 4.7533 39.5 10V30C39.5 35.2467 35.2467 39.5 30 39.5H10C4.7533 39.5 0.5 35.2467 0.5 30V10C0.5 4.7533 4.7533 0.5 10 0.5Z" stroke="#EFEDEB"/>
<path d="M28.4232 20.3886C28.346 20.3885 28.2697 20.3724 28.1992 20.3411L23.5026 18.2434C23.4065 18.2002 23.325 18.1301 23.2678 18.0416C23.2106 17.9532 23.1802 17.8501 23.1802 17.7447C23.1802 17.6394 23.2106 17.5362 23.2678 17.4478C23.325 17.3593 23.4065 17.2892 23.5026 17.246L28.1992 15.1562C28.3316 15.0974 28.4819 15.0934 28.6173 15.145C28.7527 15.1965 28.8622 15.2996 28.9219 15.4316C28.9804 15.5639 28.9841 15.7141 28.9322 15.8492C28.8802 15.9843 28.7767 16.0933 28.6445 16.1523L25.0664 17.7454L28.6452 19.3443C28.7596 19.3951 28.853 19.4836 28.9099 19.595C28.9668 19.7065 28.9836 19.8341 28.9576 19.9565C28.9316 20.0789 28.8643 20.1886 28.767 20.2672C28.6697 20.3459 28.5483 20.3888 28.4232 20.3886Z" fill="#34302D"/>
<path d="M22.0222 27.9987C16.8588 27.9987 12.3444 24.5222 11.0463 19.5436C11.0119 19.4039 11.0339 19.2563 11.1076 19.1328C11.1813 19.0092 11.3006 18.9197 11.4399 18.8835C11.5791 18.8474 11.727 18.8676 11.8515 18.9397C11.9759 19.0118 12.067 19.1301 12.1049 19.2689C13.2826 23.7695 17.3588 26.9089 22.0222 26.9076C22.097 26.9024 22.1721 26.9127 22.2427 26.9377C22.3134 26.9628 22.3782 27.0022 22.433 27.0533C22.4878 27.1045 22.5316 27.1664 22.5615 27.2352C22.5913 27.304 22.6068 27.3781 22.6068 27.4531C22.6068 27.5281 22.5913 27.6023 22.5615 27.6711C22.5316 27.7399 22.4878 27.8018 22.433 27.853C22.3782 27.9041 22.3134 27.9435 22.2427 27.9685C22.1721 27.9936 22.097 28.0039 22.0222 27.9987Z" fill="#34302D"/>
<path d="M20.1368 23.4668C19.992 23.4668 19.8531 23.4094 19.7505 23.3071C19.648 23.2048 19.5902 23.066 19.5899 22.9212V12.5469C19.5899 12.4018 19.6475 12.2627 19.7501 12.1602C19.8526 12.0576 19.9917 12 20.1368 12C20.2818 12 20.4209 12.0576 20.5235 12.1602C20.626 12.2627 20.6837 12.4018 20.6837 12.5469V22.9212C20.6833 23.066 20.6255 23.2048 20.523 23.3071C20.4205 23.4094 20.2816 23.4668 20.1368 23.4668Z" fill="#34302D"/>
</svg>
