<svg width="40" height="40" viewBox="0 0 40 40" fill="none" xmlns="http://www.w3.org/2000/svg">
<path d="M10 0.5H30C35.2467 0.5 39.5 4.7533 39.5 10V30C39.5 35.2467 35.2467 39.5 30 39.5H10C4.7533 39.5 0.5 35.2467 0.5 30V10C0.5 4.7533 4.7533 0.5 10 0.5Z" fill="#FEFEFE"/>
<path d="M10 0.5H30C35.2467 0.5 39.5 4.7533 39.5 10V30C39.5 35.2467 35.2467 39.5 30 39.5H10C4.7533 39.5 0.5 35.2467 0.5 30V10C0.5 4.7533 4.7533 0.5 10 0.5Z" stroke="#EFEDEB"/>
<path d="M11.399 12L17.9991 20.8249L11.3573 28H12.8521L18.667 21.7181L23.3652 28H28.4521L21.4806 18.6787L27.6627 12H26.168L20.8128 17.7855L16.4859 12H11.399ZM13.5972 13.1011H15.9341L26.2535 26.8988H23.9166L13.5972 13.1011Z" fill="#34302D"/>
</svg>
